<svg width="235" height="364" viewBox="0 0 235 364" fill="none" xmlns="http://www.w3.org/2000/svg">
<path d="M20 172H98V322H20V172Z" fill="#43806C"/>
<path d="M45.8522 158.499C45.6008 158.222 45.2672 157.992 44.8512 157.81C44.4438 157.628 43.9802 157.528 43.4602 157.511V160.982C43.4775 160.982 43.4905 160.986 43.4992 160.995C43.5165 160.995 43.5338 160.995 43.5512 160.995C44.0452 161.099 44.4872 161.216 44.8772 161.346C45.2758 161.476 45.6138 161.641 45.8912 161.84C46.1685 162.031 46.3808 162.265 46.5282 162.542C46.6755 162.819 46.7492 163.166 46.7492 163.582C46.7492 163.998 46.6668 164.362 46.5022 164.674C46.3462 164.986 46.1252 165.246 45.8392 165.454C45.5532 165.653 45.2108 165.805 44.8122 165.909C44.4222 166.013 43.9932 166.069 43.5252 166.078V167.339H43.0442V166.065C41.7788 166.004 40.6695 165.562 39.7162 164.739L40.1712 163.998C40.4745 164.327 40.8775 164.609 41.3802 164.843C41.8915 165.077 42.4592 165.216 43.0832 165.259V161.788L43.0052 161.762C42.5198 161.649 42.0952 161.532 41.7312 161.411C41.3672 161.29 41.0595 161.138 40.8082 160.956C40.5568 160.774 40.3662 160.557 40.2362 160.306C40.1148 160.046 40.0542 159.73 40.0542 159.357C40.0542 158.95 40.1278 158.59 40.2752 158.278C40.4225 157.957 40.6262 157.689 40.8862 157.472C41.1462 157.247 41.4582 157.073 41.8222 156.952C42.1948 156.822 42.6022 156.744 43.0442 156.718V155.405H43.5252V156.705C44.0972 156.722 44.6085 156.826 45.0592 157.017C45.5185 157.199 45.9302 157.45 46.2942 157.771L45.8522 158.499ZM45.7872 163.673C45.7872 163.413 45.7352 163.192 45.6312 163.01C45.5358 162.828 45.3885 162.668 45.1892 162.529C44.9985 162.39 44.7558 162.269 44.4612 162.165C44.1752 162.061 43.8415 161.961 43.4602 161.866V165.272C44.1968 165.272 44.7688 165.142 45.1762 164.882C45.5835 164.613 45.7872 164.21 45.7872 163.673ZM40.9902 159.227C40.9902 159.478 41.0292 159.691 41.1072 159.864C41.1938 160.029 41.3195 160.176 41.4842 160.306C41.6575 160.427 41.8742 160.536 42.1342 160.631C42.4028 160.718 42.7192 160.804 43.0832 160.891V157.524C42.3465 157.559 41.8135 157.728 41.4842 158.031C41.1548 158.334 40.9902 158.733 40.9902 159.227ZM52.549 165.194V166H48.142V165.194H49.988V159.63C49.9187 159.734 49.7973 159.847 49.624 159.968C49.4593 160.089 49.273 160.202 49.065 160.306C48.8657 160.41 48.6577 160.497 48.441 160.566C48.2243 160.635 48.0337 160.67 47.869 160.67V159.812C48.0683 159.812 48.285 159.756 48.519 159.643C48.7617 159.53 48.987 159.4 49.195 159.253C49.4117 159.106 49.5937 158.967 49.741 158.837C49.8883 158.707 49.9707 158.62 49.988 158.577H50.898V165.194H52.549ZM53.9495 167.053L54.1705 165.961H53.8715V164.726H54.7295V165.961L54.4045 167.053H53.9495ZM63.0185 162.958C63.0185 163.4 62.9318 163.816 62.7585 164.206C62.5938 164.587 62.3641 164.921 62.0695 165.207C61.7748 165.493 61.4281 165.718 61.0295 165.883C60.6308 166.048 60.2018 166.13 59.7425 166.13C59.2571 166.13 58.8108 166.043 58.4035 165.87C57.9961 165.688 57.6451 165.432 57.3505 165.103C57.0645 164.774 56.8391 164.371 56.6745 163.894C56.5098 163.409 56.4275 162.867 56.4275 162.269C56.4275 161.333 56.5098 160.518 56.6745 159.825C56.8391 159.123 57.0688 158.542 57.3635 158.083C57.6668 157.615 58.0265 157.268 58.4425 157.043C58.8585 156.818 59.3221 156.705 59.8335 156.705C60.4488 156.705 60.9991 156.857 61.4845 157.16C61.9698 157.463 62.3381 157.884 62.5895 158.421L62.0175 158.941C61.8355 158.499 61.5495 158.148 61.1595 157.888C60.7695 157.619 60.3275 157.485 59.8335 157.485C59.4521 157.485 59.1055 157.576 58.7935 157.758C58.4815 157.94 58.2128 158.204 57.9875 158.551C57.7708 158.889 57.5975 159.309 57.4675 159.812C57.3461 160.315 57.2855 160.882 57.2855 161.515C57.4761 161.004 57.8011 160.596 58.2605 160.293C58.7285 159.99 59.2571 159.838 59.8465 159.838C60.2885 159.838 60.7001 159.92 61.0815 160.085C61.4715 160.241 61.8095 160.462 62.0955 160.748C62.3815 161.025 62.6068 161.355 62.7715 161.736C62.9361 162.117 63.0185 162.525 63.0185 162.958ZM59.7685 165.35C60.0978 165.35 60.4055 165.289 60.6915 165.168C60.9861 165.038 61.2418 164.865 61.4585 164.648C61.6838 164.431 61.8571 164.18 61.9785 163.894C62.1085 163.599 62.1735 163.287 62.1735 162.958C62.1735 162.629 62.1085 162.321 61.9785 162.035C61.8485 161.74 61.6708 161.485 61.4455 161.268C61.2288 161.051 60.9731 160.882 60.6785 160.761C60.3925 160.631 60.0848 160.566 59.7555 160.566C59.4261 160.566 59.1141 160.631 58.8195 160.761C58.5335 160.882 58.2778 161.051 58.0525 161.268C57.8358 161.485 57.6625 161.74 57.5325 162.035C57.4111 162.321 57.3505 162.629 57.3505 162.958C57.3505 163.287 57.4155 163.595 57.5455 163.881C57.6755 164.167 57.8488 164.423 58.0655 164.648C58.2908 164.865 58.5465 165.038 58.8325 165.168C59.1271 165.289 59.4391 165.35 59.7685 165.35ZM68.2125 167.651V165.337H63.8835V164.557L68.4985 158.577H69.0965V164.531H70.2405V165.337H69.0965V167.651H68.2125ZM64.8195 164.531H68.3035V159.968L64.8195 164.531ZM75.3092 167.651V165.337H70.9802V164.557L75.5952 158.577H76.1932V164.531H77.3372V165.337H76.1932V167.651H75.3092ZM71.9162 164.531H75.4002V159.968L71.9162 164.531Z" fill="#214E41"/>
<path d="M27.8165 358V348.77H31.1705C32.1758 348.77 33.0165 348.978 33.6925 349.394C34.3685 349.801 34.8755 350.356 35.2135 351.058C35.5515 351.751 35.7205 352.523 35.7205 353.372C35.7205 354.308 35.5342 355.123 35.1615 355.816C34.7888 356.509 34.2602 357.047 33.5755 357.428C32.8995 357.809 32.0978 358 31.1705 358H27.8165ZM33.9135 353.372C33.9135 352.774 33.8052 352.25 33.5885 351.799C33.3718 351.34 33.0598 350.984 32.6525 350.733C32.2452 350.473 31.7512 350.343 31.1705 350.343H29.6105V356.427H31.1705C31.7598 356.427 32.2582 356.297 32.6655 356.037C33.0728 355.768 33.3805 355.404 33.5885 354.945C33.8052 354.477 33.9135 353.953 33.9135 353.372ZM40.1122 358.13C39.5662 358.13 39.0722 358.039 38.6302 357.857C38.1882 357.666 37.8112 357.411 37.4992 357.09C37.1872 356.761 36.9445 356.388 36.7712 355.972C36.6065 355.547 36.5242 355.101 36.5242 354.633C36.5242 353.983 36.6672 353.389 36.9532 352.852C37.2478 352.315 37.6638 351.886 38.2012 351.565C38.7472 351.236 39.3885 351.071 40.1252 351.071C40.8705 351.071 41.5075 351.236 42.0362 351.565C42.5648 351.886 42.9678 352.315 43.2452 352.852C43.5312 353.381 43.6742 353.953 43.6742 354.568C43.6742 354.672 43.6698 354.78 43.6612 354.893C43.6525 354.997 43.6438 355.084 43.6352 355.153H38.3702C38.4048 355.5 38.5045 355.803 38.6692 356.063C38.8425 356.323 39.0592 356.522 39.3192 356.661C39.5878 356.791 39.8738 356.856 40.1772 356.856C40.5238 356.856 40.8488 356.774 41.1522 356.609C41.4642 356.436 41.6765 356.21 41.7892 355.933L43.2842 356.349C43.1195 356.696 42.8812 357.003 42.5692 357.272C42.2658 357.541 41.9062 357.753 41.4902 357.909C41.0742 358.056 40.6148 358.13 40.1122 358.13ZM38.3312 354.048H41.8932C41.8585 353.701 41.7588 353.402 41.5942 353.151C41.4382 352.891 41.2302 352.692 40.9702 352.553C40.7102 352.406 40.4198 352.332 40.0992 352.332C39.7872 352.332 39.5012 352.406 39.2412 352.553C38.9898 352.692 38.7818 352.891 38.6172 353.151C38.4612 353.402 38.3658 353.701 38.3312 354.048ZM44.3194 354.594C44.3194 353.935 44.4494 353.342 44.7094 352.813C44.9694 352.276 45.329 351.851 45.7884 351.539C46.2477 351.227 46.772 351.071 47.3614 351.071C47.864 351.071 48.3147 351.197 48.7134 351.448C49.1207 351.691 49.437 352.003 49.6624 352.384V348.51H51.4044V356.05C51.4044 356.232 51.4347 356.362 51.4954 356.44C51.556 356.518 51.66 356.566 51.8074 356.583V358C51.5041 358.061 51.2571 358.091 51.0664 358.091C50.7544 358.091 50.4944 358.013 50.2864 357.857C50.087 357.701 49.9744 357.497 49.9484 357.246L49.9224 356.817C49.671 357.242 49.3287 357.567 48.8954 357.792C48.4707 358.017 48.0244 358.13 47.5564 358.13C47.0884 358.13 46.655 358.039 46.2564 357.857C45.8664 357.675 45.524 357.424 45.2294 357.103C44.9434 356.782 44.718 356.41 44.5534 355.985C44.3974 355.552 44.3194 355.088 44.3194 354.594ZM49.6624 355.504V353.879C49.5757 353.628 49.437 353.402 49.2464 353.203C49.0557 353.004 48.8434 352.848 48.6094 352.735C48.3754 352.614 48.1414 352.553 47.9074 352.553C47.6387 352.553 47.396 352.609 47.1794 352.722C46.9627 352.835 46.772 352.986 46.6074 353.177C46.4514 353.368 46.33 353.589 46.2434 353.84C46.1654 354.091 46.1264 354.356 46.1264 354.633C46.1264 354.91 46.1697 355.175 46.2564 355.426C46.3517 355.669 46.486 355.881 46.6594 356.063C46.8327 356.245 47.032 356.388 47.2574 356.492C47.4914 356.596 47.7427 356.648 48.0114 356.648C48.176 356.648 48.3407 356.622 48.5054 356.57C48.6787 356.509 48.839 356.431 48.9864 356.336C49.1424 356.232 49.2767 356.111 49.3894 355.972C49.5107 355.825 49.6017 355.669 49.6624 355.504ZM53.0493 355.452V351.188H54.7913V355.075C54.7913 355.595 54.8866 355.989 55.0773 356.258C55.268 356.518 55.5496 356.648 55.9223 356.648C56.1476 356.648 56.3686 356.605 56.5853 356.518C56.8106 356.423 57.0143 356.284 57.1963 356.102C57.387 355.92 57.5473 355.69 57.6773 355.413V351.188H59.4193V356.05C59.4193 356.232 59.4496 356.362 59.5103 356.44C59.5796 356.518 59.688 356.566 59.8353 356.583V358C59.662 358.026 59.5146 358.043 59.3933 358.052C59.2806 358.069 59.1766 358.078 59.0813 358.078C58.7693 358.078 58.5136 358.009 58.3143 357.87C58.1236 357.723 58.011 357.523 57.9763 357.272L57.9373 356.726C57.634 357.185 57.244 357.536 56.7673 357.779C56.2906 358.013 55.7663 358.13 55.1943 358.13C54.4923 358.13 53.9593 357.905 53.5953 357.454C53.2313 356.995 53.0493 356.327 53.0493 355.452ZM64.3224 358.13C63.7678 358.13 63.2694 358.039 62.8274 357.857C62.3854 357.666 62.0084 357.406 61.6964 357.077C61.3844 356.739 61.1418 356.358 60.9684 355.933C60.8038 355.508 60.7214 355.062 60.7214 354.594C60.7214 353.953 60.8644 353.368 61.1504 352.839C61.4451 352.302 61.8611 351.873 62.3984 351.552C62.9358 351.231 63.5728 351.071 64.3094 351.071C65.0461 351.071 65.6788 351.231 66.2074 351.552C66.7361 351.873 67.1304 352.293 67.3904 352.813L65.6874 353.333C65.5401 353.082 65.3451 352.891 65.1024 352.761C64.8598 352.622 64.5911 352.553 64.2964 352.553C63.9671 352.553 63.6638 352.64 63.3864 352.813C63.1178 352.978 62.9054 353.216 62.7494 353.528C62.5934 353.831 62.5154 354.187 62.5154 354.594C62.5154 354.993 62.5934 355.348 62.7494 355.66C62.9141 355.963 63.1308 356.206 63.3994 356.388C63.6681 356.561 63.9671 356.648 64.2964 356.648C64.5044 356.648 64.6994 356.613 64.8814 356.544C65.0721 356.475 65.2411 356.379 65.3884 356.258C65.5358 356.137 65.6441 355.998 65.7134 355.842L67.4164 356.362C67.2604 356.7 67.0308 357.003 66.7274 357.272C66.4328 357.541 66.0818 357.753 65.6744 357.909C65.2758 358.056 64.8251 358.13 64.3224 358.13ZM72.5703 357.649C72.423 357.71 72.2453 357.779 72.0373 357.857C71.8293 357.935 71.604 357.996 71.3613 358.039C71.1273 358.091 70.889 358.117 70.6463 358.117C70.3256 358.117 70.031 358.061 69.7623 357.948C69.4936 357.835 69.277 357.658 69.1123 357.415C68.9563 357.164 68.8783 356.839 68.8783 356.44V352.527H67.9813V351.188H68.8783V348.978H70.6203V351.188H72.0503V352.527H70.6203V355.855C70.629 356.089 70.694 356.258 70.8153 356.362C70.9366 356.466 71.0883 356.518 71.2703 356.518C71.4523 356.518 71.63 356.488 71.8033 356.427C71.9766 356.366 72.1153 356.314 72.2193 356.271L72.5703 357.649ZM73.4776 358V351.188H75.2196V358H73.4776ZM73.4776 350.239V348.51H75.2196V350.239H73.4776ZM80.665 358.13C80.145 358.13 79.6814 358.013 79.274 357.779C78.8667 357.545 78.546 357.224 78.312 356.817V358H76.791V348.51H78.533V352.384C78.7757 351.977 79.092 351.656 79.482 351.422C79.8807 351.188 80.3444 351.071 80.873 351.071C81.315 351.071 81.718 351.166 82.082 351.357C82.446 351.539 82.758 351.795 83.018 352.124C83.2867 352.453 83.4904 352.83 83.629 353.255C83.7764 353.68 83.85 354.135 83.85 354.62C83.85 355.105 83.7677 355.56 83.603 355.985C83.447 356.41 83.226 356.787 82.94 357.116C82.654 357.437 82.316 357.688 81.926 357.87C81.5447 358.043 81.1244 358.13 80.665 358.13ZM80.184 356.648C80.4614 356.648 80.7127 356.596 80.938 356.492C81.172 356.379 81.3714 356.232 81.536 356.05C81.7094 355.868 81.8394 355.656 81.926 355.413C82.0214 355.162 82.069 354.902 82.069 354.633C82.069 354.26 81.991 353.918 81.835 353.606C81.6877 353.285 81.4797 353.03 81.211 352.839C80.951 352.648 80.6434 352.553 80.288 352.553C80.0367 352.553 79.794 352.614 79.56 352.735C79.3347 352.848 79.131 353.004 78.949 353.203C78.7757 353.402 78.637 353.628 78.533 353.879V355.504C78.585 355.677 78.6674 355.833 78.78 355.972C78.9014 356.111 79.04 356.232 79.196 356.336C79.352 356.431 79.5124 356.509 79.677 356.57C79.8504 356.622 80.0194 356.648 80.184 356.648ZM85.0173 348.51H86.7593V355.816C86.7593 356.128 86.8113 356.34 86.9153 356.453C87.0193 356.557 87.1623 356.609 87.3443 356.609C87.483 356.609 87.626 356.592 87.7733 356.557C87.9206 356.522 88.0506 356.479 88.1633 356.427L88.3973 357.753C88.1633 357.866 87.8903 357.952 87.5783 358.013C87.2663 358.074 86.9846 358.104 86.7333 358.104C86.1873 358.104 85.7626 357.961 85.4593 357.675C85.1646 357.38 85.0173 356.964 85.0173 356.427V348.51ZM92.3153 358.13C91.7693 358.13 91.2753 358.039 90.8333 357.857C90.3913 357.666 90.0143 357.411 89.7023 357.09C89.3903 356.761 89.1476 356.388 88.9743 355.972C88.8096 355.547 88.7273 355.101 88.7273 354.633C88.7273 353.983 88.8703 353.389 89.1563 352.852C89.4509 352.315 89.8669 351.886 90.4043 351.565C90.9503 351.236 91.5916 351.071 92.3283 351.071C93.0736 351.071 93.7106 351.236 94.2393 351.565C94.7679 351.886 95.1709 352.315 95.4483 352.852C95.7343 353.381 95.8773 353.953 95.8773 354.568C95.8773 354.672 95.8729 354.78 95.8643 354.893C95.8556 354.997 95.8469 355.084 95.8383 355.153H90.5733C90.6079 355.5 90.7076 355.803 90.8723 356.063C91.0456 356.323 91.2623 356.522 91.5223 356.661C91.7909 356.791 92.0769 356.856 92.3803 356.856C92.7269 356.856 93.0519 356.774 93.3553 356.609C93.6673 356.436 93.8796 356.21 93.9923 355.933L95.4873 356.349C95.3226 356.696 95.0843 357.003 94.7723 357.272C94.4689 357.541 94.1093 357.753 93.6933 357.909C93.2773 358.056 92.8179 358.13 92.3153 358.13ZM90.5343 354.048H94.0963C94.0616 353.701 93.9619 353.402 93.7973 353.151C93.6413 352.891 93.4333 352.692 93.1733 352.553C92.9133 352.406 92.6229 352.332 92.3023 352.332C91.9903 352.332 91.7043 352.406 91.4443 352.553C91.1929 352.692 90.9849 352.891 90.8203 353.151C90.6643 353.402 90.5689 353.701 90.5343 354.048Z" fill="#214E41"/>
<path d="M138 22H216V322H138V22Z" fill="#43806C"/>
<path d="M162.837 8.499C162.585 8.22167 162.252 7.992 161.836 7.81C161.428 7.628 160.965 7.52833 160.445 7.511V10.982C160.462 10.982 160.475 10.9863 160.484 10.995C160.501 10.995 160.518 10.995 160.536 10.995C161.03 11.099 161.472 11.216 161.862 11.346C162.26 11.476 162.598 11.6407 162.876 11.84C163.153 12.0307 163.365 12.2647 163.513 12.542C163.66 12.8193 163.734 13.166 163.734 13.582C163.734 13.998 163.651 14.362 163.487 14.674C163.331 14.986 163.11 15.246 162.824 15.454C162.538 15.6533 162.195 15.805 161.797 15.909C161.407 16.013 160.978 16.0693 160.51 16.078V17.339H160.029V16.065C158.763 16.0043 157.654 15.5623 156.701 14.739L157.156 13.998C157.459 14.3273 157.862 14.609 158.365 14.843C158.876 15.077 159.444 15.2157 160.068 15.259V11.788L159.99 11.762C159.504 11.6493 159.08 11.5323 158.716 11.411C158.352 11.2897 158.044 11.138 157.793 10.956C157.541 10.774 157.351 10.5573 157.221 10.306C157.099 10.046 157.039 9.72967 157.039 9.357C157.039 8.94967 157.112 8.59 157.26 8.278C157.407 7.95733 157.611 7.68867 157.871 7.472C158.131 7.24667 158.443 7.07333 158.807 6.952C159.179 6.822 159.587 6.744 160.029 6.718V5.405H160.51V6.705C161.082 6.72233 161.593 6.82633 162.044 7.017C162.503 7.199 162.915 7.45033 163.279 7.771L162.837 8.499ZM162.772 13.673C162.772 13.413 162.72 13.192 162.616 13.01C162.52 12.828 162.373 12.6677 162.174 12.529C161.983 12.3903 161.74 12.269 161.446 12.165C161.16 12.061 160.826 11.9613 160.445 11.866V15.272C161.181 15.272 161.753 15.142 162.161 14.882C162.568 14.6133 162.772 14.2103 162.772 13.673ZM157.975 9.227C157.975 9.47833 158.014 9.69067 158.092 9.864C158.178 10.0287 158.304 10.176 158.469 10.306C158.642 10.4273 158.859 10.5357 159.119 10.631C159.387 10.7177 159.704 10.8043 160.068 10.891V7.524C159.331 7.55867 158.798 7.72767 158.469 8.031C158.139 8.33433 157.975 8.733 157.975 9.227ZM168.883 17.651V15.337H164.554V14.557L169.169 8.577H169.767V14.531H170.911V15.337H169.767V17.651H168.883ZM165.49 14.531H168.974V9.968L165.49 14.531ZM172.47 17.053L172.691 15.961H172.392V14.726H173.25V15.961L172.925 17.053H172.47ZM181.513 12.191C181.513 12.763 181.431 13.2917 181.266 13.777C181.101 14.2537 180.872 14.6697 180.577 15.025C180.291 15.3717 179.949 15.6447 179.55 15.844C179.151 16.0347 178.718 16.13 178.25 16.13C177.782 16.13 177.349 16.0347 176.95 15.844C176.551 15.6447 176.205 15.3717 175.91 15.025C175.624 14.6697 175.399 14.2537 175.234 13.777C175.069 13.2917 174.987 12.763 174.987 12.191C174.987 11.619 175.069 11.0947 175.234 10.618C175.399 10.1327 175.624 9.71667 175.91 9.37C176.205 9.01467 176.551 8.73733 176.95 8.538C177.349 8.33867 177.782 8.239 178.25 8.239C178.718 8.239 179.151 8.33867 179.55 8.538C179.949 8.73733 180.291 9.01467 180.577 9.37C180.872 9.71667 181.101 10.1327 181.266 10.618C181.431 11.0947 181.513 11.619 181.513 12.191ZM180.616 12.191C180.616 11.723 180.555 11.2983 180.434 10.917C180.321 10.5357 180.161 10.2107 179.953 9.942C179.745 9.66467 179.494 9.45233 179.199 9.305C178.913 9.149 178.597 9.071 178.25 9.071C177.895 9.071 177.57 9.149 177.275 9.305C176.989 9.45233 176.742 9.66467 176.534 9.942C176.326 10.2107 176.161 10.5357 176.04 10.917C175.927 11.2983 175.871 11.723 175.871 12.191C175.871 12.659 175.927 13.0837 176.04 13.465C176.161 13.8463 176.326 14.1757 176.534 14.453C176.742 14.7217 176.989 14.9297 177.275 15.077C177.57 15.2243 177.895 15.298 178.25 15.298C178.597 15.298 178.913 15.2243 179.199 15.077C179.494 14.9297 179.745 14.7217 179.953 14.453C180.161 14.1757 180.321 13.8463 180.434 13.465C180.555 13.0837 180.616 12.659 180.616 12.191ZM186.691 12.932C187.263 13.0273 187.718 13.2873 188.056 13.712C188.403 14.1367 188.576 14.661 188.576 15.285C188.576 15.675 188.502 16.0303 188.355 16.351C188.216 16.6803 188.013 16.9577 187.744 17.183C187.484 17.417 187.168 17.5947 186.795 17.716C186.431 17.846 186.024 17.911 185.573 17.911C184.914 17.911 184.338 17.7767 183.844 17.508C183.35 17.248 182.977 16.884 182.726 16.416L183.337 15.857C183.519 16.2383 183.796 16.5417 184.169 16.767C184.542 16.9923 185.01 17.105 185.573 17.105C186.223 17.105 186.734 16.9447 187.107 16.624C187.48 16.312 187.666 15.8613 187.666 15.272C187.666 14.674 187.471 14.2017 187.081 13.855C186.691 13.5083 186.128 13.335 185.391 13.335H185.066V12.581H185.417C186.084 12.581 186.596 12.4293 186.951 12.126C187.306 11.814 187.484 11.411 187.484 10.917C187.484 10.657 187.436 10.4273 187.341 10.228C187.246 10.0287 187.111 9.864 186.938 9.734C186.773 9.59533 186.574 9.49133 186.34 9.422C186.115 9.35267 185.868 9.318 185.599 9.318C185.105 9.318 184.667 9.43067 184.286 9.656C183.913 9.87267 183.632 10.176 183.441 10.566L182.869 10.02C182.973 9.79467 183.12 9.591 183.311 9.409C183.502 9.21833 183.718 9.058 183.961 8.928C184.204 8.798 184.472 8.69833 184.767 8.629C185.062 8.551 185.365 8.512 185.677 8.512C186.076 8.512 186.44 8.56833 186.769 8.681C187.107 8.79367 187.397 8.954 187.64 9.162C187.883 9.36133 188.069 9.604 188.199 9.89C188.338 10.176 188.407 10.4923 188.407 10.839C188.407 11.099 188.368 11.3503 188.29 11.593C188.212 11.827 188.099 12.0393 187.952 12.23C187.805 12.412 187.623 12.568 187.406 12.698C187.198 12.8193 186.96 12.8973 186.691 12.932ZM189.644 11.749C189.644 11.307 189.727 10.8953 189.891 10.514C190.065 10.124 190.299 9.786 190.593 9.5C190.888 9.214 191.235 8.98867 191.633 8.824C192.032 8.65933 192.461 8.577 192.92 8.577C193.406 8.577 193.852 8.668 194.259 8.85C194.667 9.02333 195.013 9.27467 195.299 9.604C195.594 9.93333 195.824 10.3407 195.988 10.826C196.153 11.3027 196.235 11.84 196.235 12.438C196.235 13.374 196.153 14.193 195.988 14.895C195.824 15.5883 195.59 16.1647 195.286 16.624C194.992 17.092 194.632 17.4387 194.207 17.664C193.791 17.8893 193.332 18.002 192.829 18.002C192.223 18.002 191.672 17.8503 191.178 17.547C190.693 17.2437 190.325 16.8233 190.073 16.286L190.645 15.766C190.827 16.208 191.113 16.559 191.503 16.819C191.902 17.0877 192.344 17.222 192.829 17.222C193.211 17.222 193.557 17.131 193.869 16.949C194.181 16.767 194.45 16.5027 194.675 16.156C194.901 15.818 195.074 15.402 195.195 14.908C195.317 14.4053 195.382 13.8333 195.39 13.192C195.191 13.7033 194.857 14.1107 194.389 14.414C193.93 14.7173 193.406 14.869 192.816 14.869C192.374 14.869 191.958 14.791 191.568 14.635C191.187 14.4703 190.853 14.2493 190.567 13.972C190.281 13.686 190.056 13.3523 189.891 12.971C189.727 12.5897 189.644 12.1823 189.644 11.749ZM192.907 9.357C192.578 9.357 192.266 9.422 191.971 9.552C191.685 9.67333 191.43 9.84233 191.204 10.059C190.988 10.2757 190.814 10.5313 190.684 10.826C190.554 11.112 190.489 11.4197 190.489 11.749C190.489 12.0783 190.554 12.3903 190.684 12.685C190.814 12.971 190.988 13.2223 191.204 13.439C191.43 13.6557 191.685 13.829 191.971 13.959C192.266 14.0803 192.578 14.141 192.907 14.141C193.237 14.141 193.549 14.0803 193.843 13.959C194.138 13.829 194.394 13.6557 194.61 13.439C194.827 13.2223 194.996 12.971 195.117 12.685C195.247 12.3903 195.312 12.0783 195.312 11.749C195.312 11.4283 195.247 11.125 195.117 10.839C194.996 10.5443 194.823 10.2887 194.597 10.072C194.381 9.84667 194.125 9.67333 193.83 9.552C193.544 9.422 193.237 9.357 192.907 9.357Z" fill="#214E41"/>
<path d="M148.925 348.77H150.511L154.021 358H152.175L151.317 355.699H148.093L147.248 358H145.402L148.925 348.77ZM150.992 354.438L149.718 350.811L148.392 354.438H150.992ZM161.196 358H159.454V354.178C159.454 353.632 159.358 353.233 159.168 352.982C158.977 352.731 158.713 352.605 158.375 352.605C158.201 352.605 158.024 352.64 157.842 352.709C157.66 352.778 157.486 352.878 157.322 353.008C157.166 353.129 157.023 353.277 156.893 353.45C156.763 353.623 156.667 353.814 156.607 354.022V358H154.865V351.188H156.438V352.449C156.689 352.016 157.053 351.678 157.53 351.435C158.006 351.192 158.544 351.071 159.142 351.071C159.566 351.071 159.913 351.149 160.182 351.305C160.45 351.461 160.658 351.665 160.806 351.916C160.953 352.167 161.053 352.453 161.105 352.774C161.165 353.095 161.196 353.42 161.196 353.749V358ZM169.041 358H167.299V354.178C167.299 353.632 167.204 353.233 167.013 352.982C166.823 352.731 166.558 352.605 166.22 352.605C166.047 352.605 165.869 352.64 165.687 352.709C165.505 352.778 165.332 352.878 165.167 353.008C165.011 353.129 164.868 353.277 164.738 353.45C164.608 353.623 164.513 353.814 164.452 354.022V358H162.71V351.188H164.283V352.449C164.535 352.016 164.899 351.678 165.375 351.435C165.852 351.192 166.389 351.071 166.987 351.071C167.412 351.071 167.759 351.149 168.027 351.305C168.296 351.461 168.504 351.665 168.651 351.916C168.799 352.167 168.898 352.453 168.95 352.774C169.011 353.095 169.041 353.42 169.041 353.749V358ZM172.636 358.13C171.934 358.13 171.401 357.905 171.037 357.454C170.673 357.003 170.491 356.336 170.491 355.452V351.188H172.233V355.075C172.233 356.124 172.61 356.648 173.364 356.648C173.702 356.648 174.027 356.548 174.339 356.349C174.66 356.141 174.92 355.829 175.119 355.413V351.188H176.861V355.998C176.861 356.18 176.892 356.31 176.952 356.388C177.022 356.466 177.13 356.509 177.277 356.518V358C177.104 358.035 176.957 358.056 176.835 358.065C176.723 358.074 176.619 358.078 176.523 358.078C176.211 358.078 175.956 358.009 175.756 357.87C175.566 357.723 175.453 357.523 175.418 357.272L175.379 356.726C175.076 357.194 174.686 357.545 174.209 357.779C173.733 358.013 173.208 358.13 172.636 358.13ZM180.451 358.13C180.122 358.13 179.814 358.078 179.528 357.974C179.242 357.861 178.995 357.71 178.787 357.519C178.579 357.32 178.415 357.09 178.293 356.83C178.181 356.57 178.124 356.284 178.124 355.972C178.124 355.651 178.194 355.357 178.332 355.088C178.48 354.811 178.679 354.577 178.93 354.386C179.19 354.195 179.498 354.048 179.853 353.944C180.209 353.831 180.599 353.775 181.023 353.775C181.327 353.775 181.621 353.801 181.907 353.853C182.202 353.905 182.462 353.979 182.687 354.074V353.684C182.687 353.233 182.557 352.887 182.297 352.644C182.046 352.401 181.669 352.28 181.166 352.28C180.802 352.28 180.447 352.345 180.1 352.475C179.754 352.605 179.398 352.796 179.034 353.047L178.501 351.942C179.377 351.361 180.321 351.071 181.335 351.071C182.315 351.071 183.073 351.314 183.61 351.799C184.156 352.276 184.429 352.969 184.429 353.879V355.998C184.429 356.18 184.46 356.31 184.52 356.388C184.59 356.466 184.698 356.509 184.845 356.518V358C184.551 358.061 184.295 358.091 184.078 358.091C183.749 358.091 183.493 358.017 183.311 357.87C183.138 357.723 183.03 357.528 182.986 357.285L182.947 356.908C182.644 357.307 182.276 357.61 181.842 357.818C181.409 358.026 180.945 358.13 180.451 358.13ZM180.945 356.856C181.24 356.856 181.517 356.804 181.777 356.7C182.046 356.596 182.254 356.457 182.401 356.284C182.592 356.137 182.687 355.972 182.687 355.79V355.01C182.479 354.932 182.254 354.871 182.011 354.828C181.769 354.776 181.535 354.75 181.309 354.75C180.859 354.75 180.49 354.854 180.204 355.062C179.918 355.261 179.775 355.517 179.775 355.829C179.775 356.124 179.888 356.371 180.113 356.57C180.339 356.761 180.616 356.856 180.945 356.856ZM186.044 348.51H187.786V355.816C187.786 356.067 187.847 356.262 187.968 356.401C188.089 356.54 188.263 356.609 188.488 356.609C188.592 356.609 188.705 356.592 188.826 356.557C188.956 356.522 189.077 356.479 189.19 356.427L189.424 357.753C189.19 357.866 188.917 357.952 188.605 358.013C188.293 358.074 188.011 358.104 187.76 358.104C187.214 358.104 186.789 357.961 186.486 357.675C186.191 357.38 186.044 356.964 186.044 356.427V348.51ZM200.596 358V351.89L198.217 356.44H197.242L194.863 351.89V358H193.069V348.77H194.993L197.723 354.022L200.479 348.77H202.39V358H200.596ZM205.944 358.13C205.614 358.13 205.307 358.078 205.021 357.974C204.735 357.861 204.488 357.71 204.28 357.519C204.072 357.32 203.907 357.09 203.786 356.83C203.673 356.57 203.617 356.284 203.617 355.972C203.617 355.651 203.686 355.357 203.825 355.088C203.972 354.811 204.171 354.577 204.423 354.386C204.683 354.195 204.99 354.048 205.346 353.944C205.701 353.831 206.091 353.775 206.516 353.775C206.819 353.775 207.114 353.801 207.4 353.853C207.694 353.905 207.954 353.979 208.18 354.074V353.684C208.18 353.233 208.05 352.887 207.79 352.644C207.538 352.401 207.161 352.28 206.659 352.28C206.295 352.28 205.939 352.345 205.593 352.475C205.246 352.605 204.891 352.796 204.527 353.047L203.994 351.942C204.869 351.361 205.814 351.071 206.828 351.071C207.807 351.071 208.565 351.314 209.103 351.799C209.649 352.276 209.922 352.969 209.922 353.879V355.998C209.922 356.18 209.952 356.31 210.013 356.388C210.082 356.466 210.19 356.509 210.338 356.518V358C210.043 358.061 209.787 358.091 209.571 358.091C209.241 358.091 208.986 358.017 208.804 357.87C208.63 357.723 208.522 357.528 208.479 357.285L208.44 356.908C208.136 357.307 207.768 357.61 207.335 357.818C206.901 358.026 206.438 358.13 205.944 358.13ZM206.438 356.856C206.732 356.856 207.01 356.804 207.27 356.7C207.538 356.596 207.746 356.457 207.894 356.284C208.084 356.137 208.18 355.972 208.18 355.79V355.01C207.972 354.932 207.746 354.871 207.504 354.828C207.261 354.776 207.027 354.75 206.802 354.75C206.351 354.75 205.983 354.854 205.697 355.062C205.411 355.261 205.268 355.517 205.268 355.829C205.268 356.124 205.38 356.371 205.606 356.57C205.831 356.761 206.108 356.856 206.438 356.856ZM212.628 351.188L214.097 353.32L214.201 353.554L214.331 353.32L215.787 351.188H217.581L215.15 354.607L217.62 358H215.826L214.318 355.881L214.201 355.66L214.097 355.881L212.602 358H210.808L213.265 354.607L210.847 351.188H212.628Z" fill="#214E41"/>
</svg>
